<svg version="1.1" id="Layer_1" xmlns="http://www.w3.org/2000/svg" xmlns:xlink="http://www.w3.org/1999/xlink" x="0px" y="0px"
	 width="100%" viewBox="0 0 1024 1024" enable-background="new 0 0 1024 1024" xml:space="preserve">
  <defs>
    <radialGradient id="bgGradient" cx="50%" cy="50%" r="70%">
      <stop offset="0%" stop-color="rgba(51,51,51,0.1)" />
      <stop offset="70%" stop-color="rgba(51,51,51,0)" />
    </radialGradient>
  </defs>
  <rect x="0" y="0" width="100%" height="100%" fill="url(#bgGradient)" />

<path fill="#333" opacity="1.000000" stroke="none" 
	d="
M446.000000,772.199951 
	C418.506042,772.200134 391.510284,772.389343 364.518677,772.138245 
	C344.167450,771.948914 324.395172,768.561646 306.367645,758.457825 
	C277.514313,742.286743 260.687225,717.505371 254.624969,685.176086 
	C252.931305,676.143860 252.622742,667.033325 252.627945,657.863831 
	C252.684448,558.385986 252.567825,458.908020 252.746841,359.430511 
	C252.788315,336.378937 259.393005,315.070770 273.082733,296.351074 
	C289.848846,273.424683 312.863678,260.559631 340.575317,255.616287 
	C350.275635,253.885910 360.057587,253.611969 369.888947,253.617233 
	C468.700195,253.670044 567.511597,253.580460 666.322693,253.707886 
	C688.392334,253.736343 709.241821,258.922058 727.739014,271.415192 
	C753.346008,288.710419 767.575439,313.203766 772.372925,343.483459 
	C774.177185,354.871002 774.260681,366.333435 774.256653,377.817505 
	C774.223511,471.463287 774.284668,565.109131 774.161560,658.754761 
	C774.138672,676.156433 771.828613,693.245117 764.535339,709.335571 
	C748.590210,744.514038 721.118286,764.344788 683.293213,770.342163 
	C672.587280,772.039673 661.778687,772.244629 650.953308,772.237244 
	C582.802185,772.190796 514.651123,772.205322 446.000000,772.199951 
M474.083618,624.593811 
	C475.690948,622.069153 477.437408,619.621521 478.883148,617.007446 
	C488.685547,599.283813 494.366791,579.875305 501.597900,561.102295 
	C505.216583,551.707764 508.594574,542.220520 512.048889,532.863342 
	C514.382446,533.337769 514.378601,534.932373 514.816406,536.086975 
	C519.710327,548.994080 524.425659,561.969971 529.423218,574.836365 
	C535.442322,590.332520 540.565979,606.209778 549.313721,620.545593 
	C569.889038,654.264648 612.232056,656.968323 636.900574,626.137390 
	C645.010437,616.001709 650.940735,604.652466 655.582947,592.677246 
	C669.819885,555.950806 678.412537,517.735474 684.616211,478.951874 
	C687.522583,460.781616 690.030701,442.543732 692.439392,424.299530 
	C693.525085,416.075745 693.977356,407.765442 694.613586,399.486481 
	C694.877075,396.058044 693.695190,393.449890 689.729553,393.439728 
	C673.732971,393.398743 657.736206,393.408142 641.739624,393.458496 
	C639.022766,393.467041 637.615967,394.823547 637.328674,397.752167 
	C635.481323,416.580292 633.275635,435.362823 630.489807,454.083923 
	C625.376282,488.447906 618.392456,522.407776 609.042908,555.867065 
	C607.483032,561.449402 606.476746,567.283569 603.544922,572.389160 
	C600.035034,578.501465 592.571045,578.578552 589.036438,572.497375 
	C587.549927,569.939880 586.614807,567.030090 585.653687,564.204041 
	C575.693970,534.919861 566.669434,505.304626 554.809753,476.693420 
	C550.843445,467.124908 546.038940,458.054321 539.125916,450.151794 
	C528.755798,438.297485 511.597626,436.682617 499.214935,441.694733 
	C488.809082,445.906738 483.100342,454.858795 478.299896,464.303070 
	C469.306335,481.996582 462.768188,500.696503 456.351471,519.434326 
	C450.588562,536.263062 444.834106,553.095581 438.903381,569.865479 
	C436.675995,576.163635 433.572327,578.184387 428.207428,577.282104 
	C422.293640,576.287598 421.155457,571.212219 419.835938,566.614990 
	C411.125946,536.269348 404.287231,505.487122 398.784241,474.410309 
	C394.298584,449.078583 391.068298,423.569916 388.693146,397.958466 
	C388.328552,394.026764 386.016144,393.399261 382.925751,393.396729 
	C367.428497,393.384125 351.930450,393.478302 336.434570,393.331146 
	C332.368317,393.292511 331.062958,395.096802 331.349091,398.786469 
	C331.747162,403.919403 331.903198,409.080048 332.521545,414.185364 
	C335.034363,434.932922 337.867401,455.632080 341.219330,476.269562 
	C346.552216,509.103577 353.447784,541.555725 363.779266,573.203003 
	C369.681183,591.281860 376.182098,609.149597 388.190582,624.313660 
	C398.778809,637.684143 412.173096,646.816772 429.563416,647.446899 
	C447.999847,648.114868 462.524200,639.656494 474.083618,624.593811 
z"/>
</svg>